<?xml version="1.0" encoding="UTF-8" standalone="no"?>
<!DOCTYPE svg PUBLIC "-//W3C//DTD SVG 1.1//EN" "http://www.w3.org/Graphics/SVG/1.1/DTD/svg11.dtd">
<svg width="100%" height="100%" viewBox="0 0 512 512" version="1.1" xmlns="http://www.w3.org/2000/svg" xmlns:xlink="http://www.w3.org/1999/xlink" xml:space="preserve" xmlns:serif="http://www.serif.com/" style="fill-rule:evenodd;clip-rule:evenodd;stroke-linejoin:round;stroke-miterlimit:2;">
    <g id="Variante-C" serif:id="Variante C" transform="matrix(3,0,0,3,-176,-848)">
        <g transform="matrix(1,0,0,1,0,112)">
            <path d="M176,256C176,238.339 161.661,224 144,224C126.339,224 112,238.339 112,256L112,304C112,312.831 104.831,320 96,320C87.169,320 80,312.831 80,304L80,256C80,220.677 108.677,192 144,192C179.323,192 208,220.677 208,256L208,304C208,312.831 200.831,320 192,320C183.169,320 176,312.831 176,304L176,256Z" style="fill:rgb(119,153,187);"/>
        </g>
        <g transform="matrix(0.333333,0,0,0.333333,58.6667,282.667)">
            <path d="M64,256C64,229.508 85.508,208 112,208C138.492,208 160,229.508 160,256L160,400C160,426.492 138.492,448 112,448C85.508,448 64,426.492 64,400L64,256ZM112,64C138.492,64 160,85.508 160,112C160,138.492 138.492,160 112,160C85.508,160 64,138.492 64,112C64,85.508 85.508,64 112,64Z" style="fill:url(#_Linear1);"/>
        </g>
        <g transform="matrix(0.333333,0,0,0.333333,58.6667,282.667)">
            <path d="M64,256C64,229.508 85.508,208 112,208C138.492,208 160,229.508 160,256L160,400C160,426.492 138.492,448 112,448C85.508,448 64,426.492 64,400L64,256ZM80.667,256L80.667,400C80.667,417.293 94.707,431.333 112,431.333C129.293,431.333 143.333,417.293 143.333,400L143.333,256C143.333,238.707 129.293,224.667 112,224.667C94.707,224.667 80.667,238.707 80.667,256ZM112,64C138.492,64 160,85.508 160,112C160,138.492 138.492,160 112,160C85.508,160 64,138.492 64,112C64,85.508 85.508,64 112,64ZM112,80.667C94.707,80.667 80.667,94.707 80.667,112C80.667,129.293 94.707,143.333 112,143.333C129.293,143.333 143.333,129.293 143.333,112C143.333,94.707 129.293,80.667 112,80.667Z" style="fill:rgb(119,153,187);"/>
        </g>
    </g>
    <defs>
        <linearGradient id="_Linear1" x1="0" y1="0" x2="1" y2="0" gradientUnits="userSpaceOnUse" gradientTransform="matrix(2.35132e-14,384,-384,2.35132e-14,112,64)"><stop offset="0" style="stop-color:rgb(85,119,153);stop-opacity:1"/><stop offset="1" style="stop-color:rgb(119,153,187);stop-opacity:1"/></linearGradient>
    </defs>
</svg>
